<svg xmlns="http://www.w3.org/2000/svg" xmlns:xlink="http://www.w3.org/1999/xlink" xmlns:inkscape="http://www.inkscape.org/namespaces/inkscape" version="1.1" width="1984.25" height="566.929" viewBox="0 0 1984.25 566.929">
<defs>
<clipPath id="clip_0">
<path transform="matrix(1,0,0,-1,0,566.929)" d="M0 566.929H1984.252V0H0Z"/>
</clipPath>
</defs>
<g inkscape:groupmode="layer" inkscape:label="Layer 1">
<path transform="matrix(1,0,0,-1,695.5632,404.95173)" d="M0 0V227.439H-58.648V142.533H-153.105V227.439H-211.753V0H-153.105V91.387H-58.648V0ZM261.877 0 175.949 227.439H102.298L16.708 0H80.47L92.064 34.438H186.521L198.115 0ZM171.174 83.885H107.412L139.123 176.293ZM489.999 0V227.439H431.007V96.501L338.938 227.439H278.585V0H337.233V137.419L433.395 0ZM697.654 0V49.441H589.56V90.359H695.267V140.145H589.56V177.998H697.654V227.439H530.912V0Z" fill="#ffffff"/>
<g clip-path="url(#clip_0)">
<path transform="matrix(1,0,0,-1,1541.3314,412.52183)" d="M0 0C58.314 0 88.879 32.668 103.986 62.882L51.993 87.475C44.262 68.854 24.237 53.397 0 53.397-36.536 53.397-63.587 82.907-63.587 121.197-63.587 159.487-36.536 188.996 0 188.996 24.237 188.996 44.262 173.539 51.993 154.919L103.986 179.511C88.529 210.425 58.314 242.393 0 242.393-70.258 242.393-125.06 193.564-125.06 121.197-125.06 49.179-70.258 0 0 0M118.028 121.197C118.028 49.884 171.78 0 243.443 0 315.105 0 368.502 49.884 368.502 121.197 368.502 192.509 315.105 242.393 243.443 242.393 171.78 242.393 118.028 192.509 118.028 121.197M307.03 121.197C307.03 83.256 282.088 53.397 243.443 53.397 204.448 53.397 179.506 83.256 179.506 121.197 179.506 159.487 204.448 188.996 243.443 188.996 282.088 188.996 307.03 159.487 307.03 121.197" fill="#ffffff"/>
<path transform="matrix(1,0,0,-1,74.9833,287.4212)" d="M0 0C0-4.677 .311-9.277 .699-13.851 26.953-4.458 65.013-2.858 92.359-9.66 66.625 4.628 38.366 22.767 35.115 56.353 32.471 83.808 46.666 105.09 60.052 118.809 74.919 134.058 94.036 145.112 115.432 153.608 118.552 154.837 121.59 156.116 125.021 157.421 53.414 140.757 0 76.684 0 0M164.306-35.525C156.738-36.443 148.729-36.088 142.085-35.389 118.164-33.7 92.676-20.85 67.281-18.588 42.847-16.386 24.193-18.987 2.568-27.892 3.235-31.733 4.06-35.498 4.988-39.235 22.909-33.482 40.41-28.439 62.664-30.182 101.713-33.23 141.068-57.041 178.058-41.776 178.839-41.371 179.451-40.978 179.937-40.585 174.605-38.235 169.704-36.465 165.841-35.23 165.355-35.372 164.841-35.482 164.306-35.525M204.743-55.178C181.653-61.057 160.284-65.494 136.517-61.412 121.831-58.877 107.319-54.266 93.135-50.693 63.576-43.267 34.345-42.71 8.873-52.485 10.157-56.211 11.447-59.932 12.982-63.527 24.778-59.948 38.104-57.932 50.676-57.828 86.846-57.55 128.119-77.58 167.912-74.782 184.063-73.651 198.006-70.635 212.223-64.073 212.703-63.811 213.119-63.511 213.496-63.226 210.775-60.314 207.824-57.621 204.743-55.178M223.309-78.361C192.619-89.594 158.17-90.113 125.442-83.715 106.762-80.044 88.857-73.001 69.138-71.209 51.49-69.614 34.722-71.045 18.795-75.613 21.019-79.787 23.439-83.825 26.002-87.77 37.558-84.65 49.288-82.841 62.664-83.715 90.261-85.497 116.973-97.369 144.838-100.664 172.856-103.97 199.563-99.702 226.079-89.059 226.478-88.884 226.931-88.748 227.379-88.584 226.909-86.42 226.292-84.256 225.489-82.136 224.97-80.77 224.401-79.443 223.784-78.142 223.625-78.213 223.467-78.268 223.309-78.361M225.144-114.034C225.226-114.006 225.308-113.968 225.385-113.946 226.904-109.69 227.854-105.45 228.199-101.238 227.794-101.331 227.385-101.445 226.991-101.549 189.035-115.34 153.695-118.399 118.066-108.679 110.236-106.559 96.981-103.401 90.31-101.265 80.202-98.708 70.1-96.517 59.883-95.615 50.523-95.184 41.639-96.02 33.11-97.779 35.995-101.571 39.033-105.221 42.24-108.734 46.813-108.111 51.452-107.767 56.206-107.794 73.788-107.903 91.955-114.782 109.745-119.388 145.784-128.731 192.329-132.042 225.144-114.034M189.144-148.865C200.055-145.62 212.266-138.02 216.834-129.239 198.744-140.167 162.071-141.046 140.582-138.069 130.032-136.845 119.497-134.78 109.319-132.141 91.529-127.535 73.356-120.661 55.779-120.552 55.249-120.552 54.741-120.596 54.211-120.601 61.128-126.77 68.554-132.348 76.46-137.271 99.096-141.598 121.787-151.051 144.838-152.438 160.978-153.411 178.102-152.154 189.144-148.865" fill="#ffffff"/>
<path transform="matrix(1,0,0,-1,397.1819,282.7586)" d="M0 0C0 4.677-.311 9.277-.699 13.851-26.953 4.458-65.013 2.858-92.359 9.66-66.625-4.628-38.366-22.767-35.115-56.353-32.471-83.808-46.666-105.09-60.052-118.809-74.919-134.058-94.036-145.112-115.432-153.608-118.552-154.837-121.59-156.115-125.021-157.421-53.414-140.757 0-76.684 0 0M-164.306 35.525C-156.738 36.443-148.729 36.088-142.085 35.389-118.164 33.7-92.676 20.85-67.281 18.588-42.847 16.386-24.193 18.987-2.568 27.892-3.235 31.733-4.06 35.498-4.988 39.235-22.909 33.482-40.41 28.439-62.664 30.182-101.713 33.23-141.068 57.041-178.058 41.776-178.839 41.371-179.451 40.978-179.937 40.585-174.605 38.235-169.704 36.465-165.841 35.23-165.355 35.372-164.841 35.482-164.306 35.525M-204.743 55.178C-181.653 61.057-160.284 65.494-136.517 61.412-121.831 58.877-107.319 54.266-93.135 50.693-63.576 43.267-34.345 42.71-8.873 52.485-10.157 56.211-11.447 59.932-12.982 63.527-24.778 59.948-38.104 57.932-50.676 57.828-86.846 57.55-128.119 77.58-167.912 74.782-184.063 73.651-198.006 70.635-212.223 64.073-212.703 63.811-213.119 63.511-213.496 63.226-210.775 60.314-207.824 57.621-204.743 55.178M-223.309 78.361C-192.619 89.594-158.17 90.113-125.442 83.715-106.762 80.044-88.857 73.001-69.138 71.209-51.49 69.614-34.722 71.045-18.795 75.613-21.019 79.787-23.439 83.825-26.002 87.77-37.558 84.65-49.288 82.841-62.664 83.715-90.261 85.497-116.973 97.369-144.838 100.664-172.856 103.97-199.563 99.702-226.079 89.059-226.478 88.884-226.931 88.748-227.379 88.584-226.909 86.42-226.292 84.256-225.489 82.136-224.97 80.771-224.401 79.443-223.784 78.142-223.626 78.213-223.467 78.268-223.309 78.361M-225.144 114.034C-225.226 114.006-225.308 113.968-225.385 113.946-226.904 109.69-227.854 105.45-228.199 101.238-227.794 101.331-227.385 101.445-226.991 101.549-189.035 115.34-153.695 118.399-118.066 108.679-110.236 106.559-96.981 103.401-90.31 101.265-80.202 98.708-70.1 96.517-59.883 95.615-50.523 95.184-41.639 96.02-33.11 97.779-35.995 101.571-39.033 105.221-42.24 108.734-46.813 108.111-51.452 107.767-56.206 107.794-73.788 107.903-91.955 114.782-109.745 119.388-145.784 128.731-192.329 132.042-225.144 114.034M-189.144 148.865C-200.055 145.62-212.266 138.02-216.834 129.239-198.744 140.167-162.071 141.047-140.582 138.069-130.032 136.845-119.497 134.78-109.319 132.141-91.529 127.535-73.356 120.661-55.779 120.552-55.249 120.552-54.741 120.596-54.211 120.601-61.128 126.77-68.554 132.348-76.46 137.271-99.096 141.598-121.787 151.051-144.838 152.438-160.978 153.411-178.102 152.154-189.144 148.865" fill="#ffffff"/>
</g>
</g>
</svg>
